<svg width="640" height="480" viewBox="0 0 640 480" fill="none" xmlns="http://www.w3.org/2000/svg">
<rect width="640" height="480" rx="36" fill="#FFF3EF"/>
<circle cx="152" cy="118" r="66" fill="#FFD8CF"/>
<circle cx="510" cy="376" r="92" fill="#FFE8E2"/>
<path d="M203 214C203 140.546 262.546 81 336 81C409.454 81 469 140.546 469 214V269H420V214C420 167.608 382.392 130 336 130C289.608 130 252 167.608 252 214V269H203V214Z" fill="#1F2937"/>
<rect x="176" y="240" width="94" height="140" rx="42" fill="#FF5C50"/>
<rect x="402" y="240" width="94" height="140" rx="42" fill="#FF5C50"/>
<rect x="260" y="205" width="152" height="34" rx="17" fill="#2F3B4D"/>
<rect x="194" y="258" width="58" height="102" rx="29" fill="#111827" fill-opacity=".18"/>
<rect x="420" y="258" width="58" height="102" rx="29" fill="#111827" fill-opacity=".18"/>
</svg>
