<svg width="1200" height="900" viewBox="0 0 1200 900" fill="none" xmlns="http://www.w3.org/2000/svg">
  <rect width="1200" height="900" rx="48" fill="#F9EEE1"/>
  <rect x="62" y="58" width="1076" height="784" rx="38" fill="url(#bg)"/>
  <circle cx="938" cy="205" r="134" fill="#F5C08C" fill-opacity="0.55"/>
  <circle cx="233" cy="697" r="160" fill="#F3A263" fill-opacity="0.4"/>
  <rect x="118" y="120" width="430" height="520" rx="34" fill="#FFF9F1"/>
  <rect x="170" y="178" width="220" height="260" rx="110" fill="#2A1A13"/>
  <rect x="212" y="228" width="136" height="160" rx="68" fill="#F0A35E"/>
  <rect x="196" y="480" width="276" height="24" rx="12" fill="#EBC9A6"/>
  <rect x="196" y="526" width="206" height="20" rx="10" fill="#F3DDC4"/>
  <rect x="628" y="164" width="404" height="252" rx="34" fill="#FFF7ED"/>
  <rect x="672" y="214" width="186" height="20" rx="10" fill="#E4722C"/>
  <rect x="672" y="258" width="280" height="28" rx="14" fill="#2A1A13"/>
  <rect x="672" y="306" width="238" height="20" rx="10" fill="#8E7768"/>
  <rect x="672" y="352" width="148" height="52" rx="26" fill="#2A1A13"/>
  <rect x="628" y="456" width="404" height="224" rx="34" fill="#FFFFFF" fill-opacity="0.72"/>
  <rect x="672" y="514" width="132" height="132" rx="28" fill="#F1B06C"/>
  <rect x="828" y="514" width="160" height="22" rx="11" fill="#2A1A13"/>
  <rect x="828" y="558" width="120" height="18" rx="9" fill="#8E7768"/>
  <rect x="828" y="608" width="94" height="44" rx="22" fill="#E4722C"/>
  <defs>
    <linearGradient id="bg" x1="147" y1="92" x2="1036" y2="828" gradientUnits="userSpaceOnUse">
      <stop stop-color="#FFFDF8"/>
      <stop offset="1" stop-color="#F7E0C8"/>
    </linearGradient>
  </defs>
</svg>
